<svg width="25" height="24" viewBox="0 0 25 24" fill="none" xmlns="http://www.w3.org/2000/svg">
<path d="M3.69141 16.3133C3.73144 15.8149 3.73166 15.8149 3.73189 15.8149L3.73238 15.815L3.73343 15.8151L3.73589 15.8153L3.74215 15.8158L3.75997 15.8177C3.77415 15.8192 3.79288 15.8215 3.81572 15.8248C3.86135 15.8313 3.92367 15.8418 3.99903 15.8583C4.14923 15.8913 4.35428 15.949 4.58346 16.0494C5.04302 16.2505 5.60915 16.6281 6.00951 17.3236L6.01106 17.3263C6.46253 18.1221 7.02967 18.3673 7.53965 18.4129C7.96535 18.451 8.38155 18.3507 8.69182 18.2364C8.76381 17.9004 8.87198 17.6021 9.006 17.3425C7.90902 17.1942 6.77597 16.9483 5.86417 16.3073C4.65895 15.46 3.93359 14.0042 3.93359 11.5526C3.93359 10.8333 4.03328 10.2581 4.25732 9.7361C4.44272 9.30411 4.70327 8.93241 5.02017 8.56185C4.84393 7.9497 4.64544 6.69888 5.24801 5.17707L5.33605 4.95472L5.5644 4.8837C5.96725 4.75841 6.42643 4.83862 6.81305 4.95419C7.21862 5.07543 7.63877 5.26547 8.00966 5.45709C8.3832 5.65008 8.72131 5.85229 8.96516 6.00553C9.0441 6.05514 9.11353 6.09985 9.1715 6.13775C10.1284 5.89124 11.1432 5.76447 12.1484 5.76447C13.1536 5.76447 14.1682 5.8912 15.125 6.13765C15.183 6.09966 15.2523 6.05486 15.3312 6.00516C15.5751 5.8515 15.9133 5.64877 16.2869 5.45541C16.6579 5.26344 17.0782 5.07312 17.4841 4.95205C17.871 4.83664 18.331 4.75692 18.7346 4.88435L18.9616 4.95606L19.049 5.17753C19.6509 6.70204 19.4532 7.94935 19.2771 8.56094C19.5935 8.92451 19.8748 9.29218 20.0828 9.71706C20.3381 10.2384 20.4707 10.8183 20.4707 11.5526C20.4707 14.0191 19.7097 15.4736 18.4728 16.3153C17.5416 16.949 16.3909 17.192 15.2898 17.3404C15.5412 17.8267 15.6953 18.452 15.6953 19.2137C15.6953 20.0377 15.6916 20.9591 15.688 21.724C15.6867 21.9854 15.6855 22.2281 15.6844 22.4424C15.6822 22.8568 15.6807 23.1648 15.6807 23.2957C15.6807 23.3479 15.7004 23.3764 15.7077 23.3831C15.7096 23.3848 15.7184 23.393 15.7457 23.3994C15.7722 23.4056 15.8227 23.4114 15.9049 23.3996C20.5547 21.8381 23.7188 17.4113 23.7188 12.2166C23.7188 5.73914 18.4687 0.802551 11.9531 0.802551C5.45465 0.802551 0.5 5.72245 0.5 12.2166C0.5 17.4044 3.75481 21.8361 8.39723 23.4094C8.48064 23.4212 8.53172 23.4153 8.55835 23.4091C8.58511 23.4028 8.59348 23.3951 8.59499 23.3937L8.59509 23.3936C8.60085 23.3883 8.62109 23.3605 8.62109 23.3055C8.62109 23.2006 8.6193 22.9277 8.61696 22.5716C8.61596 22.4207 8.61487 22.2549 8.61378 22.0806C8.61138 21.698 8.60897 21.2759 8.6076 20.8856C8.25556 20.9219 7.77299 20.947 7.26012 20.8979C6.2626 20.8025 4.96107 20.399 4.50097 19.0244M3.69141 16.3133L4.9707 18.8524M3.69141 16.3133L3.73144 15.8149L3.71451 15.8135L3.69753 15.8133C3.52622 15.8112 3.36884 15.8223 3.23108 15.8545C3.10012 15.885 2.93301 15.9468 2.80438 16.0885C2.65541 16.2525 2.61988 16.4535 2.64731 16.6241C2.67112 16.7723 2.73943 16.8907 2.79121 16.9663C2.89656 17.1201 3.04276 17.2513 3.13754 17.3301C3.18929 17.3732 3.23588 17.4089 3.26981 17.434C3.28689 17.4467 3.30106 17.4569 3.31142 17.4642L3.32409 17.4732L3.32814 17.476L3.32955 17.4769L3.3301 17.4773L3.33034 17.4775C3.33045 17.4776 3.33055 17.4776 3.61328 17.0652M3.69141 16.3133L3.61328 17.0652M4.50097 19.0244C4.49917 19.019 4.49739 19.0136 4.49562 19.0082L4.9707 18.8524M4.50097 19.0244C4.50103 19.0245 4.50109 19.0247 4.50115 19.0248L4.50471 19.0336L4.50522 19.0349C4.50519 19.0348 4.50515 19.0347 4.9707 18.8524M4.50097 19.0244C4.49756 19.016 4.49218 19.003 4.48492 18.9858C4.47013 18.951 4.44759 18.8993 4.41795 18.8357C4.35836 18.7077 4.27161 18.5345 4.16291 18.3523C3.92871 17.9598 3.65552 17.6344 3.40534 17.52L3.36612 17.502L3.33055 17.4776L3.61328 17.0652M4.9707 18.8524C4.9707 18.8524 4.41406 17.4315 3.61328 17.0652M6.79816 19.2729C6.80016 19.2736 6.80216 19.2742 6.80416 19.2749C6.80488 19.2751 6.80559 19.2754 6.8063 19.2756L6.83222 19.1593L6.82551 19.1817L6.81738 19.2088L6.79816 19.2729ZM6.79816 19.2729C6.73171 19.2504 6.6655 19.2252 6.59968 19.1969C6.5996 19.2034 6.59969 19.2098 6.59995 19.216C6.63346 19.269 6.69855 19.314 6.78007 19.3332L6.79816 19.2729ZM5.75818 18.6084C5.77974 18.5958 5.8012 18.5814 5.82243 18.5651L5.82254 18.5652L5.83287 18.5568C5.83338 18.5564 5.83389 18.556 5.8344 18.5556C5.839 18.5518 5.84353 18.548 5.84798 18.5442C5.85194 18.5408 5.85584 18.5374 5.85969 18.534C5.86292 18.5311 5.86611 18.5282 5.86926 18.5253C5.89903 18.4978 5.92507 18.4693 5.9477 18.4398L5.75818 18.6084ZM5.75818 18.6084C5.75702 18.5984 5.75666 18.5886 5.75709 18.5791L5.75818 18.6084ZM5.47095 18.1081L5.47192 18.1094C5.47636 18.1056 5.48088 18.1018 5.48549 18.0981L5.53203 18.1554C5.53689 18.1503 5.54134 18.1448 5.5454 18.1391C5.56715 18.1086 5.57737 18.0703 5.57606 18.0287C5.54989 18.0443 5.52431 18.0623 5.49961 18.0828C5.48991 18.0909 5.48035 18.0993 5.47095 18.1081ZM5.47095 18.1081C5.47045 18.1086 5.46996 18.1091 5.46947 18.1095M5.47095 18.1081L5.39388 18.008L5.36599 17.9717L5.36588 17.9716L5.35897 17.9626L5.29338 17.8773M5.46947 18.1095L5.32835 17.7403C5.35844 17.7409 5.38996 17.7506 5.41983 17.768C5.40312 17.7865 5.38478 17.8044 5.3647 17.8216M5.46947 18.1095L5.47041 18.1107C5.46773 18.113 5.46508 18.1154 5.46246 18.1177C5.45712 18.1224 5.45191 18.1273 5.44682 18.1321M5.46947 18.1095C5.46694 18.1119 5.46442 18.1144 5.46192 18.1168C5.45683 18.1218 5.4518 18.1269 5.44682 18.1321M5.46947 18.1095L5.41707 18.0451L5.36054 17.9755L5.36043 17.9753L5.353 17.9662L5.28516 17.8827M5.46947 18.1095L5.28516 17.8827M5.29338 17.8773C5.29779 17.8744 5.30219 17.8713 5.30656 17.8682C5.31051 17.8655 5.31443 17.8626 5.31835 17.8597C5.33405 17.848 5.34952 17.8353 5.3647 17.8216M5.29338 17.8773C5.29065 17.8791 5.2879 17.8809 5.28516 17.8827M5.29338 17.8773L5.22279 17.7855C5.2291 17.7791 5.23622 17.7733 5.24414 17.7684C5.25218 17.7618 5.26074 17.7565 5.2697 17.7523M5.3647 17.8216C5.35644 17.8287 5.34789 17.8356 5.33904 17.8424L5.2697 17.7523M5.3647 17.8216C5.37246 17.8146 5.38014 17.8073 5.38773 17.7997L5.2697 17.7523M5.2697 17.7523L5.28516 17.8827M4.80052 17.3792L4.78027 17.3973L4.79945 17.3781M4.80052 17.3792C4.80016 17.3788 4.79981 17.3785 4.79945 17.3781M4.80052 17.3792C4.80263 17.3812 4.80474 17.3833 4.80684 17.3854L4.80052 17.3792ZM4.79945 17.3781C4.79829 17.377 4.79714 17.3759 4.79599 17.3747M4.79945 17.3781L4.86084 17.3167L4.87185 17.3069L4.88403 17.296L4.89176 17.289L4.90456 17.2776L4.79599 17.3747M5.44682 18.1321C5.43516 18.1443 5.42378 18.1572 5.41272 18.1708L5.43085 18.1856C5.42165 18.1841 5.41222 18.1818 5.40266 18.1788C5.41623 18.1629 5.43092 18.1473 5.44682 18.1321ZM5.28516 17.8827L5.2142 17.7954C5.19378 17.8216 5.18427 17.8569 5.18568 17.8962C5.19173 17.9064 5.1978 17.9165 5.20389 17.9265C5.23128 17.9144 5.25847 17.8999 5.28516 17.8827ZM4.79599 17.3747C4.79262 17.3715 4.78925 17.3682 4.78588 17.365L4.79599 17.3747ZM7.85497 19.4186C7.91691 19.4162 7.97805 19.412 8.03824 19.4064C8.04021 19.4134 8.04229 19.4203 8.04447 19.4271C8.00117 19.4642 7.93629 19.4887 7.86227 19.4917C7.85712 19.4919 7.85192 19.492 7.84668 19.492C7.84009 19.4926 7.83357 19.493 7.82715 19.4933C7.7354 19.4975 7.6612 19.4708 7.61722 19.425C7.61661 19.4231 7.61601 19.4211 7.61542 19.4192C7.68685 19.4217 7.7575 19.4217 7.82715 19.4196C7.83146 19.4195 7.83576 19.4193 7.84006 19.4192C7.84227 19.4191 7.84447 19.419 7.84668 19.4189C7.84944 19.4188 7.85221 19.4187 7.85497 19.4186ZM7.05396 19.2617C7.04643 19.2832 7.03757 19.3025 7.02784 19.3199L7.09321 19.1578C7.08904 19.1446 7.08304 19.1315 7.07538 19.1187C7.0771 19.1527 7.07405 19.1896 7.06393 19.2289C7.06115 19.2396 7.05785 19.2506 7.05396 19.2617ZM4.86047 17.4403C4.86845 17.4488 4.87639 17.4574 4.88429 17.4662C4.92408 17.4812 4.96409 17.484 4.99766 17.4704C4.99875 17.47 4.99984 17.4695 5.00092 17.469L4.92884 17.3803C4.93621 17.3743 4.94363 17.3686 4.95109 17.363C4.95172 17.3625 4.95235 17.3621 4.95298 17.3616L4.86047 17.4403ZM4.35721 16.952C4.40843 16.9741 4.46379 16.9715 4.50262 16.9466L4.3838 16.8634L4.35721 16.952ZM9.10645 20.3074C9.10645 20.3074 8.91215 20.3491 8.60647 20.3828L9.10737 20.8163C9.10679 20.6364 9.10645 20.4644 9.10645 20.3074ZM8.59911 19.3602C8.64644 19.3853 8.70968 19.3957 8.77863 19.3846L8.76621 19.2645C8.71275 19.2803 8.65748 19.2953 8.60055 19.3095C8.60058 19.3118 8.60059 19.314 8.60059 19.3162C8.60059 19.3311 8.60008 19.3458 8.59911 19.3602ZM8.82711 19.3734L8.79851 19.2549C8.86725 19.2341 8.93283 19.2123 8.99486 19.1902L9.01143 19.1881C9.01366 19.2052 9.01452 19.2218 9.01422 19.2379C8.98487 19.2968 8.91616 19.3469 8.82711 19.3734Z" stroke="#AFA6B9"/>
</svg>
