<svg width="25" height="25" viewBox="0 0 25 25" fill="none" xmlns="http://www.w3.org/2000/svg">
<path d="M8.8787 14.1634L12.6135 11.812L9.97635 14.1944L9.82676 14.3295L9.81273 14.5306L9.59789 17.6117L9.5606 18.1465H10.0967C10.334 18.1465 10.5343 18.0924 10.71 17.9902C10.8609 17.9024 10.9758 17.7872 11.0491 17.7137C11.0519 17.7109 11.0547 17.7081 11.0574 17.7054L12.21 16.5952L14.8977 18.5763L14.9218 18.5941L14.9479 18.6089C15.2825 18.7984 15.7003 18.9198 16.0993 18.7392C16.4966 18.5595 16.6892 18.1641 16.7764 17.7688L16.7772 17.7649L18.7643 8.40066C18.7643 8.40052 18.7644 8.40037 18.7644 8.40022C18.8709 7.90258 18.81 7.40853 18.4735 7.08078C18.131 6.74723 17.6558 6.73292 17.266 6.87336L17.266 6.87324L17.2557 6.87723L5.58085 11.3792L5.57897 11.3799C5.34586 11.4709 5.13953 11.5834 4.98023 11.7234C4.8236 11.861 4.67318 12.0616 4.65043 12.3237C4.6263 12.6017 4.75534 12.8277 4.91634 12.979C5.07024 13.1237 5.26942 13.22 5.47346 13.2844L5.47506 13.2849L8.46334 14.2175L8.68351 14.2862L8.8787 14.1634ZM0.71875 12.1094C0.71875 5.69606 5.91481 0.5 12.3281 0.5C18.7414 0.5 23.9375 5.69606 23.9375 12.1094C23.9375 18.5227 18.7414 23.7188 12.3281 23.7188C5.91481 23.7188 0.71875 18.5227 0.71875 12.1094Z" stroke="#AFA6B9"/>
</svg>
