<svg width="26" height="22" viewBox="0 0 26 22" fill="none" xmlns="http://www.w3.org/2000/svg">
<path d="M22.3541 5.61354L22.1305 5.77682L22.1502 6.05299C22.1646 6.2543 22.1648 6.45858 22.1648 6.68361C22.1648 13.2419 17.1759 20.7616 8.08677 20.7616C5.996 20.7616 4.01732 20.3105 2.23845 19.4973C4.44583 19.3406 6.47263 18.5249 8.12553 17.2294L9.22766 16.3656L7.82765 16.336C6.07368 16.2989 4.56646 15.3045 3.80793 13.8589C3.86939 13.8608 3.93144 13.8619 3.99414 13.8619C4.49914 13.8619 5.00134 13.7923 5.46791 13.6714L5.44182 12.6974C3.56045 12.316 2.09781 10.8068 1.79267 8.90085C2.33585 9.1009 2.92192 9.22245 3.53107 9.24541L5.3008 9.31212L3.82726 8.32974C2.58087 7.49881 1.76567 6.08172 1.76567 4.47863C1.76567 3.87954 1.87661 3.31647 2.07949 2.79752C4.67636 5.67941 8.38078 7.53863 12.5022 7.75397L13.1501 7.78782L13.0178 7.1527C12.9444 6.80007 12.9014 6.438 12.9014 6.08082C12.9014 3.53233 14.9628 1.45709 17.5251 1.45709C18.8578 1.45709 20.0595 2.01529 20.9039 2.91689L21.0923 3.11808L21.363 3.06616C22.0657 2.9314 22.7515 2.72439 23.4046 2.45466C23.0355 2.96811 22.5616 3.40389 22.0119 3.73207L22.3217 4.65852C22.8021 4.6068 23.2749 4.51928 23.7358 4.40198C23.312 4.84531 22.8492 5.25201 22.3541 5.61354Z" stroke="#AFA6B9"/>
</svg>
