<svg width="16" height="16" viewBox="0 0 16 16" fill="none" xmlns="http://www.w3.org/2000/svg">
<g clip-path="url(#clip0)">
<g filter="url(#filter0_d)">
<path d="M3.58807 3.04545L2.01847 12.5H4.52983L5.45312 6.99716H5.52699L6.72727 12.4261H8.24148L11.233 7.03409H11.3068L10.402 12.5H12.9134L14.483 3.04545H11.2884L8.20455 8.40057H8.09375L6.78267 3.04545H3.58807Z" fill="#F3ABFF"/>
<path d="M3.58807 3.04545V2.54545H3.16423L3.09482 2.96357L3.58807 3.04545ZM2.01847 12.5L1.52522 12.4181L1.42861 13H2.01847V12.5ZM4.52983 12.5V13H4.95293L5.02294 12.5827L4.52983 12.5ZM5.45312 6.99716V6.49716H5.03003L4.96002 6.91442L5.45312 6.99716ZM5.52699 6.99716L6.0152 6.88922L5.92852 6.49716H5.52699V6.99716ZM6.72727 12.4261L6.23906 12.5341L6.32574 12.9261H6.72727V12.4261ZM8.24148 12.4261V12.9261H8.53587L8.6787 12.6687L8.24148 12.4261ZM11.233 7.03409V6.53409H10.9386L10.7957 6.79152L11.233 7.03409ZM11.3068 7.03409L11.8001 7.11575L11.8964 6.53409H11.3068V7.03409ZM10.402 12.5L9.9087 12.4183L9.81241 13H10.402V12.5ZM12.9134 12.5V13H13.3372L13.4066 12.5819L12.9134 12.5ZM14.483 3.04545L14.9762 3.12734L15.0728 2.54545H14.483V3.04545ZM11.2884 3.04545V2.54545H10.9993L10.8551 2.79594L11.2884 3.04545ZM8.20455 8.40057V8.90057H8.49359L8.63784 8.65008L8.20455 8.40057ZM8.09375 8.40057L7.60809 8.51947L7.7014 8.90057H8.09375V8.40057ZM6.78267 3.04545L7.26833 2.92655L7.17502 2.54545H6.78267V3.04545ZM3.09482 2.96357L1.52522 12.4181L2.51171 12.5819L4.08132 3.12734L3.09482 2.96357ZM2.01847 13H4.52983V12H2.01847V13ZM5.02294 12.5827L5.94623 7.0799L4.96002 6.91442L4.03672 12.4173L5.02294 12.5827ZM5.45312 7.49716H5.52699V6.49716H5.45312V7.49716ZM5.03878 7.1051L6.23906 12.5341L7.21548 12.3182L6.0152 6.88922L5.03878 7.1051ZM6.72727 12.9261H8.24148V11.9261H6.72727V12.9261ZM8.6787 12.6687L11.6702 7.27666L10.7957 6.79152L7.80426 12.1836L8.6787 12.6687ZM11.233 7.53409H11.3068V6.53409H11.233V7.53409ZM10.8135 6.95243L9.9087 12.4183L10.8953 12.5817L11.8001 7.11575L10.8135 6.95243ZM10.402 13H12.9134V12H10.402V13ZM13.4066 12.5819L14.9762 3.12734L13.9897 2.96357L12.4201 12.4181L13.4066 12.5819ZM14.483 2.54545H11.2884V3.54545H14.483V2.54545ZM10.8551 2.79594L7.77125 8.15105L8.63784 8.65008L11.7216 3.29497L10.8551 2.79594ZM8.20455 7.90057H8.09375V8.90057H8.20455V7.90057ZM8.57941 8.28167L7.26833 2.92655L6.29701 3.16436L7.60809 8.51947L8.57941 8.28167ZM6.78267 2.54545H3.58807V3.54545H6.78267V2.54545Z" fill="#FFE4FB"/>
</g>
</g>
<defs>
<filter id="filter0_d" x="0.428711" y="1.54547" width="15.6442" height="12.4545" filterUnits="userSpaceOnUse" color-interpolation-filters="sRGB">
<feFlood flood-opacity="0" result="BackgroundImageFix"/>
<feColorMatrix in="SourceAlpha" type="matrix" values="0 0 0 0 0 0 0 0 0 0 0 0 0 0 0 0 0 0 127 0" result="hardAlpha"/>
<feOffset/>
<feGaussianBlur stdDeviation="0.5"/>
<feColorMatrix type="matrix" values="0 0 0 0 0.985023 0 0 0 0 0.251136 0 0 0 0 1 0 0 0 0.5 0"/>
<feBlend mode="normal" in2="BackgroundImageFix" result="effect1_dropShadow"/>
<feBlend mode="normal" in="SourceGraphic" in2="effect1_dropShadow" result="shape"/>
</filter>
<clipPath id="clip0">
<rect width="16" height="16" fill="white"/>
</clipPath>
</defs>
</svg>
