<svg width="16" height="16" viewBox="0 0 16 16" fill="none" xmlns="http://www.w3.org/2000/svg">
<g clip-path="url(#clip0)">
<g filter="url(#filter0_d)">
<path d="M3.58807 3.54545L2.01847 13H4.52983L5.45312 7.49716H5.52699L6.72727 12.9261H8.24148L11.233 7.53409H11.3068L10.402 13H12.9134L14.483 3.54545H11.2884L8.20455 8.90057H8.09375L6.78267 3.54545H3.58807Z" fill="#F3ABFF"/>
<path d="M3.58807 3.54545V3.04545H3.16423L3.09482 3.46357L3.58807 3.54545ZM2.01847 13L1.52522 12.9181L1.42861 13.5H2.01847V13ZM4.52983 13V13.5H4.95293L5.02294 13.0827L4.52983 13ZM5.45312 7.49716V6.99716H5.03003L4.96002 7.41442L5.45312 7.49716ZM5.52699 7.49716L6.0152 7.38922L5.92852 6.99716H5.52699V7.49716ZM6.72727 12.9261L6.23906 13.0341L6.32574 13.4261H6.72727V12.9261ZM8.24148 12.9261V13.4261H8.53588L8.6787 13.1687L8.24148 12.9261ZM11.233 7.53409V7.03409H10.9386L10.7957 7.29152L11.233 7.53409ZM11.3068 7.53409L11.8001 7.61575L11.8964 7.03409H11.3068V7.53409ZM10.402 13L9.9087 12.9183L9.81241 13.5H10.402V13ZM12.9134 13V13.5H13.3372L13.4066 13.0819L12.9134 13ZM14.483 3.54545L14.9762 3.62734L15.0728 3.04545H14.483V3.54545ZM11.2884 3.54545V3.04545H10.9993L10.8551 3.29594L11.2884 3.54545ZM8.20455 8.90057V9.40057H8.49359L8.63784 9.15008L8.20455 8.90057ZM8.09375 8.90057L7.60809 9.01947L7.7014 9.40057H8.09375V8.90057ZM6.78267 3.54545L7.26833 3.42655L7.17502 3.04545H6.78267V3.54545ZM3.09482 3.46357L1.52522 12.9181L2.51171 13.0819L4.08132 3.62734L3.09482 3.46357ZM2.01847 13.5H4.52983V12.5H2.01847V13.5ZM5.02294 13.0827L5.94623 7.5799L4.96002 7.41442L4.03672 12.9173L5.02294 13.0827ZM5.45312 7.99716H5.52699V6.99716H5.45312V7.99716ZM5.03878 7.6051L6.23906 13.0341L7.21548 12.8182L6.0152 7.38922L5.03878 7.6051ZM6.72727 13.4261H8.24148V12.4261H6.72727V13.4261ZM8.6787 13.1687L11.6702 7.77666L10.7957 7.29152L7.80426 12.6836L8.6787 13.1687ZM11.233 8.03409H11.3068V7.03409H11.233V8.03409ZM10.8135 7.45243L9.9087 12.9183L10.8953 13.0817L11.8001 7.61575L10.8135 7.45243ZM10.402 13.5H12.9134V12.5H10.402V13.5ZM13.4066 13.0819L14.9762 3.62734L13.9897 3.46357L12.4201 12.9181L13.4066 13.0819ZM14.483 3.04545H11.2884V4.04545H14.483V3.04545ZM10.8551 3.29594L7.77125 8.65105L8.63784 9.15008L11.7216 3.79497L10.8551 3.29594ZM8.20455 8.40057H8.09375V9.40057H8.20455V8.40057ZM8.57941 8.78167L7.26833 3.42655L6.29701 3.66436L7.60809 9.01947L8.57941 8.78167ZM6.78267 3.04545H3.58807V4.04545H6.78267V3.04545Z" fill="#FFE4FB"/>
</g>
</g>
<defs>
<filter id="filter0_d" x="0.428711" y="2.04547" width="15.6442" height="12.4545" filterUnits="userSpaceOnUse" color-interpolation-filters="sRGB">
<feFlood flood-opacity="0" result="BackgroundImageFix"/>
<feColorMatrix in="SourceAlpha" type="matrix" values="0 0 0 0 0 0 0 0 0 0 0 0 0 0 0 0 0 0 127 0" result="hardAlpha"/>
<feOffset/>
<feGaussianBlur stdDeviation="0.5"/>
<feColorMatrix type="matrix" values="0 0 0 0 0.985023 0 0 0 0 0.251136 0 0 0 0 1 0 0 0 0.5 0"/>
<feBlend mode="normal" in2="BackgroundImageFix" result="effect1_dropShadow"/>
<feBlend mode="normal" in="SourceGraphic" in2="effect1_dropShadow" result="shape"/>
</filter>
<clipPath id="clip0">
<rect width="16" height="16" fill="white"/>
</clipPath>
</defs>
</svg>
