<svg width="58" height="47" viewBox="0 0 58 47" fill="none" xmlns="http://www.w3.org/2000/svg">
<g clip-path="url(#clip0)">
<g filter="url(#filter0_d)">
<path d="M12.5043 6.09091L6.70881 41H15.9815L19.3906 20.6818H19.6634L24.0952 40.7273H29.6861L40.7315 20.8182H41.0043L37.6634 41H46.9361L52.7315 6.09091H40.9361L29.5497 25.8636H29.1406L24.2997 6.09091H12.5043Z" fill="#F3ABFF"/>
<path d="M12.5043 6.09091V5.59091H12.0804L12.011 6.00902L12.5043 6.09091ZM6.70881 41L6.21556 40.9181L6.11896 41.5H6.70881V41ZM15.9815 41V41.5H16.4046L16.4746 41.0827L15.9815 41ZM19.3906 20.6818V20.1818H18.9675L18.8975 20.5991L19.3906 20.6818ZM19.6634 20.6818L20.1516 20.5739L20.0649 20.1818H19.6634V20.6818ZM24.0952 40.7273L23.607 40.8352L23.6936 41.2273H24.0952V40.7273ZM29.6861 40.7273V41.2273H29.9805L30.1233 40.9698L29.6861 40.7273ZM40.7315 20.8182V20.3182H40.4371L40.2943 20.5756L40.7315 20.8182ZM41.0043 20.8182L41.4975 20.8998L41.5938 20.3182H41.0043V20.8182ZM37.6634 41L37.1701 40.9183L37.0738 41.5H37.6634V41ZM46.9361 41V41.5H47.3599L47.4293 41.0819L46.9361 41ZM52.7315 6.09091L53.2248 6.1728L53.3214 5.59091H52.7315V6.09091ZM40.9361 6.09091V5.59091H40.647L40.5028 5.84139L40.9361 6.09091ZM29.5497 25.8636V26.3636H29.8388L29.983 26.1132L29.5497 25.8636ZM29.1406 25.8636L28.655 25.9825L28.7483 26.3636H29.1406V25.8636ZM24.2997 6.09091L24.7854 5.97201L24.6921 5.59091H24.2997V6.09091ZM12.011 6.00902L6.21556 40.9181L7.20206 41.0819L12.9975 6.1728L12.011 6.00902ZM6.70881 41.5H15.9815V40.5H6.70881V41.5ZM16.4746 41.0827L19.8837 20.7646L18.8975 20.5991L15.4884 40.9173L16.4746 41.0827ZM19.3906 21.1818H19.6634V20.1818H19.3906V21.1818ZM19.1751 20.7898L23.607 40.8352L24.5834 40.6193L20.1516 20.5739L19.1751 20.7898ZM24.0952 41.2273H29.6861V40.2273H24.0952V41.2273ZM30.1233 40.9698L41.1688 21.0607L40.2943 20.5756L29.2489 40.4847L30.1233 40.9698ZM40.7315 21.3182H41.0043V20.3182H40.7315V21.3182ZM40.511 20.7365L37.1701 40.9183L38.1566 41.0817L41.4975 20.8998L40.511 20.7365ZM37.6634 41.5H46.9361V40.5H37.6634V41.5ZM47.4293 41.0819L53.2248 6.1728L52.2383 6.00902L46.4428 40.9181L47.4293 41.0819ZM52.7315 5.59091H40.9361V6.59091H52.7315V5.59091ZM40.5028 5.84139L29.1164 25.6141L29.983 26.1132L41.3694 6.34042L40.5028 5.84139ZM29.5497 25.3636H29.1406V26.3636H29.5497V25.3636ZM29.6263 25.7447L24.7854 5.97201L23.8141 6.20981L28.655 25.9825L29.6263 25.7447ZM24.2997 5.59091H12.5043V6.59091H24.2997V5.59091Z" fill="#FFE4FB"/>
</g>
</g>
<defs>
<filter id="filter0_d" x="0.119141" y="-0.409119" width="59.2024" height="47.9091" filterUnits="userSpaceOnUse" color-interpolation-filters="sRGB">
<feFlood flood-opacity="0" result="BackgroundImageFix"/>
<feColorMatrix in="SourceAlpha" type="matrix" values="0 0 0 0 0 0 0 0 0 0 0 0 0 0 0 0 0 0 127 0" result="hardAlpha"/>
<feOffset/>
<feGaussianBlur stdDeviation="3"/>
<feColorMatrix type="matrix" values="0 0 0 0 0.985023 0 0 0 0 0.251136 0 0 0 0 1 0 0 0 0.5 0"/>
<feBlend mode="normal" in2="BackgroundImageFix" result="effect1_dropShadow"/>
<feBlend mode="normal" in="SourceGraphic" in2="effect1_dropShadow" result="shape"/>
</filter>
<clipPath id="clip0">
<rect width="58" height="47" fill="white"/>
</clipPath>
</defs>
</svg>
